<svg width="243" height="176" fill="none" xmlns="http://www.w3.org/2000/svg"><path fill-rule="evenodd" clip-rule="evenodd" d="M64.382 87.357c7.016-3.372 9.12 7.91 4.48 10.829-4.183 2.619-8.54-2.036-6.868-7.95.526-1.855 1.214-2.309 2.388-2.866v-.013zm6.537-4.533c-2.887-2.996-8.21-2.898-11.731-.356-6.045 4.383-6.26 16.16.162 20.698 4.466 3.152 8.101 1.67 12.068-.457l.038 1.897 6.571-.066-.053-23.539-6.517.052c-.175.363-.094 1.673-.189 1.893-.567 1.168.32.28-.349-.122z" fill="#211E1E"/><path d="M71.009 83.456c.03-.015.06.03.09.022.015 0 .023-.015.038-.022.023-.008.038 0 .06 0 .054.007.062.022.031.083-.005.007-.06.007-.068.007-.046 0-.015.008-.046-.03-.004-.007-.015-.007-.015-.007-.004-.014.015-.037.023-.044.005-.015.006-.03.015-.037.015-.014.088-.007.106 0l-.008.077c-.022 0-.023-.007-.053 0-.008 0-.015.007-.023 0a.102.102 0 0 1-.03-.022c-.016 0-.03 0-.023.007-.001-.007.003 0 0 0 .003 0 .01.008.013.008.006-.008.007-.015.015-.023h.053s.002 0 0 0c.004.093-.016.044.022.067h-.007c-.023 0-.038.007-.061 0-.016-.008-.023-.023-.038-.023-.031-.007-.061.037-.09.022v-.077l-.004-.008z" fill="#211E1E"/><path d="M71.106 83.49c-.008-.007.007-.007.023-.007a.102.102 0 0 0 .03.022c.008.007.015 0 .023 0 .03-.007.03 0 .053 0l.008-.076c-.018-.008-.09-.015-.106 0-.01.007-.01.021-.015.036-.008.007-.027.03-.023.044 0 0 .01 0 .015.008.03.037 0 .03.046.03.007 0 .063 0 .068-.008.03-.061.023-.076-.03-.083-.023 0-.038-.008-.061 0-.015.007-.023.022-.038.022-.03.007-.06-.037-.09-.022l.004.008v.078c.029.014.059-.03.09-.023.015 0 .022.015.038.022.022.008.038 0 .06 0h.008c-.038-.022-.018.027-.022-.066m-.081.015c.003 0-.001-.007 0 0zm0 0c.003 0 .01.008.013.008.006-.008.007-.015.015-.023h.053m0 0c.002 0 0 0 0 0z" stroke="#211E1E" stroke-width=".462"/><path d="M71.072 83.3c.008 0 .016.008.023.015h.151c.03.001.045-.007.015.052H71.2c-.03.015-.054-.037-.084-.037-.008.001-.015.008-.023.008s-.015.007-.03.007c-.039-.03-.061-.082-.016-.115.008-.008.023-.008.03-.015.008 0 .024-.007.031 0 .008.007.03.043.053.029.039-.022.008-.044.062-.03.068.03-.016.091-.046.075-.008-.008-.015-.023-.023-.03-.023-.014-.053.03-.06.037-.054 0-.108-.044-.062-.097.006-.007.015-.007.023-.014.007 0 .053-.015.06-.015.016.007.016.037.04.03.014 0 .014-.03.022-.037h.06c.07 0 .132.077.031.104-.015 0-.09.007-.095-.008-.038-.074.008-.022-.006-.036 0-.015-.005-.03.003-.037.007-.007.094.007.107.007l-.009.074a.328.328 0 0 1-.083-.013c-.007-.007-.01-.017-.018-.031.007.014-.003-.013.018-.035.005-.007.054.008.069 0 .023 0-.008 0-.008.037 0 .007.008.014.016.022-.008-.008-.014-.008-.021-.008l-.046-.007c-.015-.007-.015-.037-.03-.037-.016 0-.008.03-.023.044-.008.008-.023 0-.03.007-.016 0 .015-.036-.023-.036.004 0 .012.005.02.005.007.007.03.043.053.029.007-.007.011-.02.019-.034.015-.015.127 0 .015.066.008 0 0 0-.005-.007-.008-.015-.008-.03-.016-.037-.023-.022-.038.03-.045.037-.004.007-.016.007-.016.007.002.001-.001 0 0 0 0 0-.013-.037-.004-.008 0 .029.005.063.046.048.008 0 .015-.012.022-.012H71.263c.03.059.015.052-.015.052h-.15c-.008 0-.015.008-.023.015l-.002-.07z" fill="#211E1E"/><path d="M71.156 83.316h-.06c-.008-.008-.016-.016-.024-.016l.002.07c.008-.007.015-.014.023-.014h.15c.03 0 .046.007.015-.052H71.18c-.008 0-.015.012-.023.012zm0 0h.09c.03 0 .045-.008.015.051H71.2c-.03.015-.054-.037-.084-.037-.008.001-.015.008-.023.008s-.015.007-.03.007c-.039-.03-.061-.082-.016-.115.008-.008.023-.008.03-.015.008 0 .024-.007.031 0m.048.1c-.041.016-.047-.018-.046-.047-.008-.03.004.008.004.008m-.006-.061c.008.007.03.043.053.029m-.053-.03c-.007 0-.015-.004-.02-.004.039 0 .008.037.023.037.008-.008.023 0 .03-.008.016-.014.008-.044.024-.044.015 0 .015.03.03.037l.046.007c.007 0 .013 0 .02.008m-.1-.003c.039-.022.008-.044.062-.03.068.03-.016.091-.046.075-.008-.008-.015-.023-.023-.03-.023-.014-.053.03-.06.037-.054 0-.108-.044-.062-.097.006-.007.015-.007.023-.014.007 0 .053-.015.06-.015.016.007.016.037.04.03.014 0 .014-.03.022-.037h.06c.07 0 .132.077.031.104m-.106-.023c.007-.007.011-.02.019-.034.015-.015.127 0 .015.066.008 0 0 0-.005-.007-.008-.015-.008-.03-.016-.037-.023-.022-.038.03-.045.037-.004.007-.016.007-.016.007m.154-.01c-.015 0-.09.008-.095-.007-.038-.074.008-.022-.006-.036m.101.044.009-.074c-.013 0-.1-.014-.107-.007-.008.007-.002.022-.003.037m.101.044a.328.328 0 0 1-.083-.013c-.007-.007-.01-.017-.018-.031m0 0c.007.014-.003-.013.018-.035.005-.007.054.008.069 0 .023 0-.008 0-.008.037 0 .007.008.014.016.022m0 0zm-.148.029c-.001 0 .002.001 0 0z" stroke="#211E1E" stroke-width=".462"/><path fill-rule="evenodd" clip-rule="evenodd" d="M87.886 104.553c.486-4.072-2.172-19.544 4.29-17.832 5.06 1.349-.228 13.579 4.049 17.884l6.854-.129c-2.281-4.293-1.714-3.8-1.727-9.312 0-3.216-.621-8.495 3.44-8.495 6.463 0-.121 13.669 5.235 17.923l6.895-.066c-4.453-4.539-.716-12.242-2.685-18.87-.742-2.49-2.969-4.707-6.22-5.018-4.48-.428-5.546.998-7.988 2.944-1.592-1.168-2.334-2.763-5.747-2.957-3.117-.182-5.24.772-6.683 2.354l-.054-1.611c-.03-.169-.078-.236-.159-.353l-6.326.09.162 23.512 6.665-.051v-.013zM127.728 87.42c7.097-3.721 8.972 8.612 4.155 10.947-3.575 1.725-6.017-1.012-6.732-3.489-.729-2.503-.283-5.953 2.577-7.457zm-2.812 15.599c3.168 2.43 9.261 2.519 12.418-.321 6.598-5.965 5.316-16.639-.836-20.607-4.696-3.022-8.028-1.09-11.347.83l-.054-10.271-6.908.116.175 31.852 6.379.036c.176-1.644.002.015 0 .022l.173-1.657z" fill="#211E1E"/><path fill-rule="evenodd" clip-rule="evenodd" d="M150.395 90.34c1.066-5.68 7.381-5.577 8.19.014l-8.19-.014zm13.978 6.678c-4.52 1.57-12.21 4.604-13.991-1.763l15.098-.272c.297-6.705-1.795-11.828-6.72-13.747-12.993-5.058-20.98 13.215-11.347 20.983 4.048 3.268 11.874 3.891 16.11.441.675-1.336.81-3.67.837-5.641h.013zM188.43 81.028l-7.285.13-4.682 15.264-4.534-15.407-7.204.014c.229 2.01 7.097 21.84 8.122 23.565l7.582.036 8.015-23.59-.014-.012z" fill="#211E1E"/></svg>