<svg width="243" height="176" fill="none" xmlns="http://www.w3.org/2000/svg"><g fill="#211E1E"><path d="M172.612 84.773c-1.618-26.624-23.87-47.87-51.112-47.87S72.006 58.15 70.388 84.773c0 1.076.135 2.151.27 3.227a50.007 50.007 0 0 0 9.575 23.935c9.305 12.64 24.274 20.842 41.267 20.842-23.736 0-43.156-18.422-44.774-41.55-.135-1.076-.135-2.151-.135-3.227s0-2.151.135-3.227c1.618-23.128 21.038-41.55 44.774-41.55 16.992 0 31.962 8.202 41.267 20.842A50.003 50.003 0 0 1 172.342 88c.135 1.076.27 2.151.27 3.093 0-1.076.135-2.152.135-3.228 0-.94 0-2.016-.135-3.092z"/><path d="M70.388 91.227c1.618 26.624 23.87 47.87 51.112 47.87s49.494-21.246 51.112-47.87c0-1.076-.135-2.151-.27-3.227a49.993 49.993 0 0 0-9.575-23.935c-9.305-12.64-24.275-20.842-41.267-20.842 23.735 0 43.155 18.422 44.774 41.55.135 1.076.135 2.151.135 3.227s0 2.151-.135 3.227c-1.619 23.263-21.039 41.55-44.774 41.55-16.992 0-31.962-8.202-41.267-20.842A50.007 50.007 0 0 1 70.657 88c-.134-1.076-.27-2.151-.27-3.093 0 1.076-.134 2.152-.134 3.228 0 .94 0 2.016.135 3.092z"/><g><path d="M115.161 46.72v14.118h9.845c2.427 0 4.316-1.883 4.316-4.303 0-1.21-.54-2.286-1.349-3.093.539-.672.944-1.613 1.079-2.554 0-2.286-1.888-4.169-4.181-4.169h-9.71zm3.237 2.957h5.934c.674 0 1.213.538 1.213 1.21 0 .673-.539 1.21-1.213 1.21h-5.934v-2.42zm0 5.379h6.068c.81 0 1.349.538 1.349 1.345 0 .806-.539 1.344-1.349 1.344h-6.068v-2.69zM119.881 63.527l-7.013 14.12h3.642l1.078-2.421h7.957l1.079 2.42h3.641l-7.147-14.119h-3.237zm1.618 3.63 2.428 5.11h-4.855l2.427-5.11zM126.354 80.739h4.046l-7.147 9.143v4.976h-3.372v-4.976l-7.148-9.143h4.046l4.855 6.454 4.72-6.454zM149.551 80.739v14.119h3.371v-5.379h2.563l4.046 5.379h4.045l-4.18-5.513c1.753-.538 3.101-2.152 3.101-4.169 0-2.42-1.888-4.437-4.315-4.437h-8.631zm3.506 2.958h4.855c.675 0 1.349.672 1.349 1.345 0 .672-.54 1.344-1.349 1.344h-4.855v-2.689zM80.637 80.739v14.119h9.845c2.427 0 4.315-1.883 4.315-4.303 0-1.21-.54-2.286-1.349-3.093.54-.672.944-1.614 1.08-2.555 0-2.286-1.889-4.168-4.181-4.168h-9.71zm3.236 2.958h5.934c.674 0 1.214.538 1.214 1.21 0 .672-.54 1.21-1.214 1.21h-5.934v-2.42zm0 5.379h6.07c.808 0 1.348.538 1.348 1.344 0 .807-.54 1.345-1.349 1.345h-6.069v-2.69zM103.833 80.739 96.82 94.858h3.642l1.078-2.42h7.957l1.079 2.42h3.641l-7.147-14.12h-3.237zm1.618 3.63 2.428 5.11h-4.855l2.427-5.11zM145.1 80.739v3.035h-9.44v2.375h9.17v3.035h-9.17v2.639h9.44v3.035h-12.812v-14.12H145.1zM115.026 115.431v14.119h3.372v-5.379h2.562l4.046 5.379h4.046l-4.181-5.513c1.753-.538 3.102-2.152 3.102-4.169 0-2.42-1.888-4.437-4.316-4.437h-8.631zm3.507 2.958h4.855c.674 0 1.348.673 1.348 1.345 0 .672-.539 1.345-1.348 1.345h-4.855v-2.69zM127.973 97.919v3.035h-9.44v2.375h9.17v3.035h-9.17v2.639h9.44v3.035h-12.812v-14.12h12.812z"/></g></g></svg>