<svg width="243" height="176" fill="none" xmlns="http://www.w3.org/2000/svg"><path fill-rule="evenodd" clip-rule="evenodd" d="m89.284 87.288-1.88 5.836h3.752l-1.872-5.836zm-31.262-9.572c3.535-.056 7.615.963 7.917 5.331.157 2.262-1.136 4.67-3.368 5.303 4.015 1.098 4.596 6.838 2.508 8.935-2.853 2.865-7.36 2.738-10.921 2.856h-6.641l.062-22.424h10.444zm-4.103 18.32h2.645c1.226 0 2.112-.233 2.672-.692.554-.46.808-1.17.757-2.141-.047-.873-.328-1.53-.85-1.967-.52-.437-1.283-.658-2.28-.658H53.76l.004 1.909c.002.238.005.518.016.838.011.32.038.826.075 1.518l.064 1.193zm-.202-9.371h1.913c1.616 0 2.772-.205 3.468-.607.69-.403 1.01-1.058.953-1.965-.055-.866-.363-1.472-.924-1.821-.56-.342-1.535-.517-2.917-.517h-2.473c-.006.12-.007.433-.01.95-.003.516-.002.967-.006 1.357l-.004 2.603zm105.052-4.908c3.751-.232 5.986 1.817 6.115 4.39.126 2.489-.86 4.22-3.758 5.36l4.635 8.638h-5.31l-5.155-10.39 2.15-.01c1.209-.006 2.154-1.062 2.195-2.334.06-1.851-1.134-2.53-2.802-2.53l-1.826.002.029 15.262h-4.971l.008-18.388h8.69zm-46.723.108h4.982v18.266h-4.982V81.865zm6.463 0h4.983v15.188h6.16v3.028l-11.143.05V81.865zm47.487 18.327-.015-18.704h12.803l.012 3.162-7.713-.037-.007 4.168 6.989-.037-.051 3.226h-6.945l-.041 4.885 7.729.026.013 3.311h-12.774zm13.501-18.728h5.049l3.256 11.61 4.185-11.61h5.05l-6.578 18.699h-5.647l-5.315-18.7zm-42.426 6.207h1.835c1.445 0 2.457-.27 3.043-.821.583-.548.875-1.254.875-2.106 0-.834-.257-1.542-.762-2.119-.505-.578-1.457-.87-2.857-.87h-2.134v5.916zm-6.127-9.81h9.944c2.236 0 4.933.759 6.193 1.805 1.615 1.344 1.97 2.935 2.052 4.499.247 4.67-3.438 7.072-8.347 7.072h-3.715v8.901h-6.127V77.86zM97.617 96.935h5.831c.981 0 2.38-.73 1.829-2.305-.161-.459-.559-.961-1.37-1.408-1.043-.574-2.636-1.1-3.89-1.79-1.169-.644-2.316-1.744-2.78-2.624-.866-1.644-.767-4.09.75-5.538.972-.929 2.688-1.49 4.474-1.385l7.809.015-.019 3.096-6.547.028c-1.319.006-2.234 1.398-1.492 2.279 1.449 1.72 4.795 2.43 6.235 3.388 2.59 1.721 3.136 5.265 1.284 7.508-1.29 1.563-3.554 1.877-5.95 1.886l-7.76.03-.001-.01h-2.714l-1.101-4.043H86.66l-1.701 4.043-7.497-.029-5.088-10.322 2.151-.01c1.209-.006 2.153-.86 2.194-2.132.06-1.85-1.133-2.733-2.801-2.731l-1.827.001.03 15.262h-4.972l.008-18.388h8.691c3.751-.232 5.985 1.817 6.115 4.39.125 2.49-.927 4.355-3.825 5.495l2.888 5.223 5.51-15.004 6.162.014 4.919 15.061z" fill="#211E1E"/></svg>