<svg width="242" height="176" fill="none" xmlns="http://www.w3.org/2000/svg"><path d="M61.478 85.735c-4.22 4.355-.92 7.918 7.398 8.043l-.806 1.426c-10.596-.114-15.078-4.186-10.017-9.153 3.709-3.642 12.196-7.455 19.741-8.518l-.659 1.199c-6.205 1.165-12.56 3.813-15.657 7.003z" fill="#211E1E"/><path d="M56.997 86.006c-5.435 5.34-.68 9.74 10.698 9.864l-1.123 1.991c-.408.012-.805.012-1.214.012-12.98 0-17.937-5.724-11.89-11.946 4.833-4.989 15.771-9.152 25.028-9.673l-.521.95c-8.328 1.007-17.007 4.899-20.978 8.802z" fill="#211E1E"/><path d="M48.829 85.983c5.775-5.848 18.72-10.328 30.248-10.757l-.41.69c-9.96.486-21.068 4.694-26.151 9.932-6.353 6.538-1.202 12.692 12.436 12.692.43 0 .827-.01 1.258-.022l-1.19 2.104c-1.544.102-6.672.384-11.562-1.12-8.078-2.489-10.018-8.078-4.629-13.519zM71.043 95.135c-.76.034-1.567.057-2.122.069l.738-1.415c.543-.01 1.316-.022 1.905-.045l-.521 1.391zM69.126 100.282c-.954.09-2.134.192-2.939.261l1.044-2.048c.704-.034 1.747-.09 2.61-.147l-.715 1.934zM70.078 97.737c-.681.047-1.531.091-2.518.125l1.01-1.969c.827-.01 1.599-.045 2.223-.079l-.715 1.923z" fill="#211E1E"/><path d="M61.237 85.798c-4.22 4.355-.92 7.918 7.397 8.043l-.805 1.425C57.23 95.153 52.75 91.08 57.81 86.114c3.71-3.642 12.197-7.455 19.743-8.518l-.66 1.2c-6.205 1.164-12.559 3.811-15.656 7.002z" fill="#211E1E"/><path d="M56.755 86.069c-5.435 5.34-.68 9.74 10.7 9.865l-1.124 1.99c-.409.011-.806.011-1.215.011-12.98 0-17.936-5.723-11.889-11.945 4.832-4.989 15.77-9.152 25.028-9.672l-.522.95c-8.328 1.006-17.007 4.898-20.978 8.801z" fill="#211E1E"/><path d="M48.587 86.046c5.775-5.848 18.72-10.328 30.248-10.758l-.409.69c-9.961.487-21.069 4.695-26.153 9.933-6.352 6.539-1.201 12.692 12.437 12.692.43 0 .828-.011 1.259-.023l-1.191 2.104c-1.544.103-6.671.386-11.562-1.12-8.079-2.488-10.019-8.076-4.629-13.518zM70.801 95.198c-.761.034-1.566.057-2.122.068l.738-1.414c.544-.011 1.315-.023 1.906-.046l-.522 1.392zM68.884 100.345c-.954.091-2.133.192-2.939.26l1.044-2.047c.704-.035 1.746-.09 2.61-.148l-.715 1.935zM69.837 97.8c-.681.046-1.531.091-2.519.125l1.01-1.968c.828-.012 1.6-.046 2.224-.08l-.715 1.922zM128.385 78.017l-.467 2.275h3.765l-3.792 17.868h4.067l3.793-17.868h3.848l.468-2.275h-11.682zM151.609 79.113c-.715-.877-2.061-1.315-4.039-1.315-1.871 0-3.382.465-4.564 1.425-1.154.931-1.924 2.302-2.309 4.083l-3.16 14.854h4.067l2.309-10.825h3.216L144.82 98.16h4.096l3.16-14.854c.385-1.919.248-3.289-.467-4.193zm-3.435 3.344-.468 2.192h-3.216l.468-2.192c.164-.85.412-1.425.714-1.782.302-.328.77-.52 1.401-.52.578 0 .936.192 1.101.52.192.357.192.96 0 1.782zM164.282 78.017l-3.08 14.497c-.247 1.151-.521 1.946-.851 2.358-.303.438-.743.657-1.291.657-.606 0-.935-.247-1.073-.685-.109-.466-.054-1.234.193-2.33l3.078-14.497h-4.068l-3.106 14.58c-.412 1.945-.247 3.398.494 4.385.771 1.013 2.035 1.506 3.848 1.506 1.869 0 3.382-.493 4.508-1.451 1.1-.96 1.897-2.44 2.31-4.44l3.105-14.58h-4.067zM196.877 79.661c-.715-1.233-2.089-1.863-4.095-1.863-1.979 0-3.628.685-4.947 2.055-1.264 1.398-2.364 4.139-3.244 8.277-.88 4.083-.961 6.824-.247 8.249.715 1.397 2.061 2.11 4.04 2.11 1.98 0 3.602-.713 4.92-2.11 1.292-1.425 2.364-4.166 3.244-8.25.934-4.384 1.044-7.207.329-8.468zm-3.6 2.878c-.11 1.288-.412 3.151-.935 5.59-.522 2.44-.989 4.304-1.43 5.592-.439 1.315-1.071 1.945-1.923 1.945-.825 0-1.209-.575-1.154-1.726.055-1.179.384-3.124.962-5.81.495-2.412.989-4.248 1.429-5.564.467-1.315 1.127-1.973 1.952-1.973.851 0 1.236.658 1.099 1.946zM92.597 87.335l.55-2.686.386-1.754c.192-.96.521-1.644.933-2.028.413-.384 1.072-.575 1.952-.575h2.913l.495-2.275h-3.985c-2.062 0-3.518.356-4.425 1.042-.908.712-1.567 2.082-2.007 4.137l-2.089 9.811c-.385 1.727-.219 3.015.467 3.865.688.849 1.897 1.287 3.6 1.287h4.674l.467-2.274h-3.023c-1.017 0-1.677-.247-1.98-.767-.275-.521-.302-1.37-.055-2.576l1.127-5.207zM182.23 79.195c-.604-.794-1.76-1.178-3.464-1.178h-6.211l-4.288 20.142h4.067l1.98-9.318h1.704c.495 0 .852.138 1.072.412.22.246.302.63.192 1.151l-1.648 7.755h3.874l1.65-7.646c.192-.876.082-1.616-.303-2.22-.412-.602-1.1-.958-2.033-1.068 1.016-.301 1.841-.822 2.473-1.562.659-.74 1.099-1.726 1.347-2.932.357-1.59.22-2.769-.412-3.536zm-3.82 4.22c-.248 1.124-.551 1.92-.909 2.357-.384.467-.878.686-1.483.686h-1.182l1.319-6.221h1.072c.714 0 1.155.219 1.319.657.165.439.137 1.288-.136 2.521zM106.451 80.922c.44-.384 1.074-.575 1.98-.575h2.913l.494-2.276h-4.012c-2.035 0-3.519.357-4.426 1.042-.879.713-1.566 2.083-2.006 4.138l-2.089 9.811c-.357 1.727-.192 3.015.495 3.864.686.85 1.869 1.288 3.6 1.288h4.646l.494-2.274h-3.051c-.989 0-1.649-.247-1.951-.767-.302-.52-.302-1.37-.055-2.577l1.099-5.207h4.838l.577-2.685h-4.837l.384-1.754c.193-.96.495-1.644.907-2.028zM124.892 79.14c-.548-.712-1.484-1.069-2.775-1.069h-6.761l-4.289 20.143h4.068l3.793-17.758h.715c.687 0 1.153.165 1.429.466.248.301.302.74.193 1.343l-3.409 15.949h4.068l3.436-16.086c.275-1.288.11-2.275-.468-2.987z" fill="#211E1E"/><g><path d="m128.385 78.072-.467 2.275h3.765l-3.792 17.867h4.067l3.793-17.867h3.848l.468-2.275h-11.682z" fill="#211E1E"/></g><g><path d="M139.599 80.3h-3.848l-3.793 17.868h-4.067l3.792-17.869h-3.765l.467-2.274h11.682l-.468 2.274z" fill="#211E1E"/></g><g><path d="M139.599 80.354h-3.848l-3.793 17.867h-4.067l3.792-17.867h-3.765l.467-2.275h11.682l-.468 2.275z" fill="#211E1E"/></g></svg>