<svg width="242" height="176" fill="none" xmlns="http://www.w3.org/2000/svg"><g fill-rule="evenodd" clip-rule="evenodd" fill="#211E1E"><path d="M141.79 74.114v1.137a9.844 9.844 0 0 0-5.149-1.445c-5.368 0-9.719 4.249-9.719 9.486 0 5.238 4.351 9.486 9.719 9.486a9.825 9.825 0 0 0 5.149-1.444v2.44a4.968 4.968 0 0 1-1.508 3.554 5.217 5.217 0 0 1-3.641 1.472 5.24 5.24 0 0 1-3.04-.969 5.03 5.03 0 0 1-1.867-2.533l-4.233 1.712c1.355 3.647 4.934 6.25 9.14 6.25 5.366 0 9.715-4.248 9.715-9.486h.011v-19.66h-4.577zm-5.149 14.205A5.213 5.213 0 0 1 133 86.846a4.966 4.966 0 0 1-1.508-3.554c0-.994.302-1.966.868-2.793a5.127 5.127 0 0 1 2.312-1.851 5.268 5.268 0 0 1 2.976-.286 5.188 5.188 0 0 1 2.636 1.377c.72.703 1.211 1.599 1.409 2.574a4.912 4.912 0 0 1-.294 2.904 5.055 5.055 0 0 1-1.897 2.256 5.24 5.24 0 0 1-2.861.846zM84.575 73.806c-5.367 0-9.718 4.25-9.718 9.487s4.351 9.486 9.718 9.486 9.716-4.249 9.716-9.486c0-5.238-4.35-9.487-9.716-9.487zm0 14.513a5.26 5.26 0 0 1-1.97-.382 5.158 5.158 0 0 1-1.67-1.09 5.02 5.02 0 0 1-1.116-1.631 4.921 4.921 0 0 1 .476-4.716 5.125 5.125 0 0 1 2.311-1.852 5.267 5.267 0 0 1 2.976-.286 5.19 5.19 0 0 1 2.637 1.377 4.99 4.99 0 0 1 1.409 2.574 4.915 4.915 0 0 1-.294 2.904 5.055 5.055 0 0 1-1.897 2.256 5.24 5.24 0 0 1-2.862.846zM66.66 78.266c.858 0 1.702.209 2.456.609s1.393.977 1.86 1.68l3.268-3.19a9.66 9.66 0 0 0-3.376-2.624 9.892 9.892 0 0 0-4.208-.934c-5.367 0-9.718 4.249-9.718 9.486 0 5.237 4.351 9.485 9.718 9.485a9.78 9.78 0 0 0 7.584-3.56l-3.268-3.189a5.093 5.093 0 0 1-1.86 1.681c-.754.4-1.598.61-2.456.61a5.215 5.215 0 0 1-3.642-1.473 4.967 4.967 0 0 1-1.508-3.554c0-1.334.542-2.612 1.508-3.555a5.215 5.215 0 0 1 3.642-1.472zM158.001 73.806c-5.366 0-9.718 4.249-9.718 9.487 0 5.237 4.352 9.486 9.718 9.486 5.367 0 9.716-4.249 9.716-9.486v-9.487h-9.716zm5.151 9.487a4.969 4.969 0 0 1-1.508 3.554 5.215 5.215 0 0 1-3.641 1.472 5.212 5.212 0 0 1-3.641-1.472 4.965 4.965 0 0 1-1.508-3.554 4.965 4.965 0 0 1 1.507-3.555 5.215 5.215 0 0 1 3.641-1.473h5.15v5.028zM122.891 75.731c-1.321-1.288-2.979-1.924-5.139-1.924-2.13 0-4.759 1.094-6.171 3.527-.976-1.986-3.04-3.528-5.469-3.528-1.878 0-3.646.8-5.101 2.398v-2.09h-4.805v18.254h4.805V82.31c.035-1.436.478-2.276 1.213-3.019.738-.741 1.683-.989 2.685-.989 2.031 0 3.19 1.598 3.19 4.168v9.898h4.805V82.31c.034-1.436.478-2.276 1.213-3.019.737-.741 1.682-.989 2.686-.989 2.029 0 3.188 1.598 3.188 4.168v9.898h5.016V81.339c0-2.465-.796-4.318-2.116-5.608zm59.167 7.193c-.806-.466-2.775-1.182-4.421-1.794-2.625-.974-3.215-1.623-3.132-2.295.081-.637 1.158-1.116 2.834-1.037 1.676.077 3.078.35 5.14 1.19l1.594-3.636c-2.448-1.088-4.692-1.546-6.412-1.546-2.79 0-4.398.432-5.892 1.505-1.493 1.072-2.137 2.4-2.137 4.122 0 1.7 1.18 3.184 2.76 4.117.773.458 1.913 1.08 3.741 1.696 1.151.388 1.857.586 2.454.891.632.325.824.697.824 1.13 0 .54-.67 1.215-2.306 1.215-2.009 0-4.424-.725-6.571-1.943l-2.072 3.821c1.441.88 2.261 1.227 3.831 1.718 1.569.489 3.084.735 4.546.735 2.192 0 4.007-.565 5.477-1.643 1.268-.93 2.088-2.386 2.088-4.203 0-1.478-.538-3.001-2.346-4.043z"/></g></svg>