<svg width="242" height="176" fill="none" xmlns="http://www.w3.org/2000/svg"><g fill="#211E1E"><path d="M150.318 110.294c-1.125-.528-2.582-.957-3.999-1.172a4.953 4.953 0 0 0-4.338 1.498c-10.227 10.857-22.523 16.836-34.64 16.836-10.898 0-20.2-6.604-24.279-17.273-.326-.853-1.204-1.25-2.142-1.035-.373.084-.772.332-.706.671 2.795 13.293 13.042 22.222 26.735 23.316 16.741 1.336 33.761-6.526 43.881-20.894.486-.69.22-1.602-.512-1.947zM157.471 73.352c4.451 0 8.25 1.192 11.278 4.116a.737.737 0 0 1-.027 1.1l-4.791 4.195a.75.75 0 0 1-.505.189.8.8 0 0 1-.533-.202c-1.443-1.27-3.107-1.804-5.096-1.804-4.359 0-7.246 3.179-7.246 7.243 0 4.507 2.887 8.31 7.758 8.31 2.089 0 4.052-.814 5.569-2.195a.806.806 0 0 1 .532-.208c.173 0 .353.058.493.176l5.01 4.168a.742.742 0 0 1 .033 1.127c-3.24 3.003-7.445 4.474-12.063 4.474-9.209 0-16.494-6.187-16.494-15.325.006-8.72 7.272-15.364 16.082-15.364zM137.683 73.834c.565 0 .938.573.698 1.075l-11.897 24.938c-1.098 2.299-4.178 3.764-6.041 3.764-2.595 0-4.957-1.478-6.048-3.784L102.578 74.91c-.24-.502.153-1.069.698-1.069h7.865c.299 0 .592.183.712.463l8.084 18.803c.1.234.326.352.546.352a.58.58 0 0 0 .545-.358l8.045-18.804a.79.79 0 0 1 .712-.462h7.898zM86.469 73.352c4.451 0 8.25 1.192 11.278 4.116a.737.737 0 0 1-.027 1.1l-4.79 4.195a.75.75 0 0 1-.506.189.8.8 0 0 1-.533-.202c-1.443-1.27-3.107-1.804-5.096-1.804-4.358 0-7.246 3.179-7.246 7.243 0 4.507 2.888 8.31 7.758 8.31 2.09 0 4.052-.814 5.57-2.195a.806.806 0 0 1 .531-.208c.174 0 .353.058.493.176l5.01 4.168c.36.306.366.814.033 1.127-3.24 3.003-7.445 4.474-12.063 4.474-9.209 0-16.494-6.187-16.494-15.325.006-8.72 7.266-15.364 16.082-15.364zM88.265 67.125c1.125.528 2.582.958 3.999 1.173a4.955 4.955 0 0 0 4.338-1.498c10.227-10.858 22.523-16.837 34.639-16.837 10.899 0 20.201 6.605 24.28 17.273.326.853 1.204 1.25 2.142 1.036.373-.085.772-.333.706-.671-2.795-13.293-13.042-22.223-26.735-23.317-16.741-1.335-33.76 6.526-43.881 20.894-.486.69-.22 1.602.512 1.947z"/></g></svg>