<svg width="242" height="176" fill="none" xmlns="http://www.w3.org/2000/svg"><g fill="#211E1E"><path d="M85.61 83.46H69.57v4.746h11.376c-.563 6.642-6.115 9.493-11.357 9.493a12.536 12.536 0 0 1-8.937-3.691 12.435 12.435 0 0 1-3.621-8.944c0-7.184 5.578-12.715 12.573-12.715 5.396 0 8.576 3.43 8.576 3.43l3.331-3.441s-4.279-4.749-12.081-4.749c-9.936 0-17.621 8.361-17.621 17.391 0 8.849 7.23 17.478 17.872 17.478 9.362 0 16.215-6.395 16.215-15.85 0-1.996-.291-3.148-.291-3.148h.005zM98.751 80.022c-6.583 0-11.3 5.132-11.3 11.114 0 6.073 4.574 11.299 11.377 11.299 6.157 0 11.201-4.692 11.201-11.169 0-7.409-5.867-11.245-11.278-11.245v.001zm.064 4.402c3.236 0 6.304 2.61 6.304 6.814 0 4.114-3.055 6.799-6.32 6.799-3.587 0-6.405-2.864-6.405-6.832 0-3.883 2.793-6.78 6.431-6.78h-.01zM123.325 80.022c-6.582 0-11.3 5.132-11.3 11.114 0 6.073 4.574 11.299 11.377 11.299 6.158 0 11.202-4.692 11.202-11.169 0-7.409-5.868-11.245-11.279-11.245v.001zm.064 4.402c3.237 0 6.304 2.61 6.304 6.814 0 4.114-3.055 6.799-6.319 6.799-3.587 0-6.406-2.864-6.406-6.832 0-3.883 2.793-6.78 6.432-6.78h-.011zM147.428 80.035c-6.042 0-10.79 5.276-10.79 11.198 0 6.745 5.505 11.218 10.685 11.218 3.203 0 4.907-1.268 6.149-2.723v2.21c0 3.867-2.354 6.183-5.908 6.183-3.434 0-5.156-2.546-5.766-3.99l-4.32 1.789c1.532 3.231 4.618 6.6 10.121 6.6 6.022 0 10.586-3.772 10.586-11.685V80.709h-4.695v1.898c-1.447-1.559-3.431-2.572-6.06-2.572h-.002zm.435 4.395c2.962 0 6.004 2.521 6.004 6.827 0 4.378-3.036 6.79-6.069 6.79-3.221 0-6.218-2.606-6.218-6.749 0-4.302 3.114-6.868 6.283-6.868zM179.166 80.008c-5.699 0-10.484 4.523-10.484 11.19 0 7.06 5.333 11.246 11.018 11.246 4.755 0 7.687-2.593 9.416-4.918l-3.885-2.578c-1.009 1.558-2.695 3.085-5.507 3.085-3.159 0-4.612-1.725-5.513-3.398l15.071-6.234-.769-1.827c-1.455-3.576-4.853-6.566-9.347-6.566zm.196 4.31c2.053 0 3.53 1.089 4.158 2.394l-10.065 4.194c-.435-3.247 2.652-6.588 5.894-6.588h.013zM161.485 101.779h4.951v-33.03h-4.951v33.03z"/></g></svg>