<svg width="242" height="176" fill="none" xmlns="http://www.w3.org/2000/svg"><g fill="#211E1E"><path d="M85.951 115.232s-.624-2.016-1.72-3.108L73.445 101.37c-1.247-1.243-3.691-3.663-3.691-7.191 0-3.529 2.983-6.049 6.59-7.494 3.607-1.445 62.264-25.17 66.613-26.985 4.349-1.814 10.602-4.603 13.434-5.948 2.832-1.344 10.855-5.129 11.12-5.271.266-.143.409-.223.535-.223.127 0 .245.11.245.252 0 .143-.093.34-.123.437-.029.097-2.456 7.292-4.378 9.745-1.921 2.453-2.865 3.495-12.068 6.721S81.063 90.146 79.512 90.751c-1.55.605-5.056 1.68-5.056 4.268 0 2.084 2.09 3.697 2.696 4.234.607.538 17.126 15.979 17.126 15.979H85.95z"/><path d="M78.703 98.539s-1.5-1.386-1.702-1.588c-.202-.201-.64-.957-.64-1.495 0-.538.1-1.832 2.376-2.537 2.275-.706 55.387-18.13 58.286-19.037 2.899-.908 20.02-6.57 23.067-7.931.644-.277.758-.345.859-.345.101 0 .232.064.232.219s-.072.273-.126.361c-.055.088-2.988 6.091-4.707 7.981-1.72 1.89-3.262 3.226-6.397 4.008-3.135.78-52.007 13.887-52.323 13.975-.316.088-.683.378-.683.769 0 .642.531.693.531.693l-18.773 4.927zM79.79 99.497l4.323 4.007 22.427-4.209s-.582-.365-.582-.788c0-.422.341-.699.752-.78.411-.083 32.925-6.37 34.948-6.724 2.022-.353 4.686-.94 6.86-3.562 2.174-2.621 4.283-6.122 4.353-6.23.069-.106.095-.17.095-.233s-.038-.22-.203-.22c-.164 0-.252.038-.417.1-.164.064-72.556 18.639-72.556 18.639zM143.377 93.6c-.092.02-58.235 10.879-58.235 10.879l5.04 4.645 26.892-3.377s-.505-.185-.505-.706c0-.52.497-.714.783-.764.287-.05 13.839-2.033 15.432-2.268 1.592-.236 4.213-.782 6.421-3.1a126.64 126.64 0 0 0 4.467-4.99c.084-.102.097-.165.097-.215 0-.05-.063-.155-.19-.155-.033 0-.109.03-.202.05zM91.379 110.208l5.394 5.041h35.598l-13.316-8.267-27.676 3.226zM89.535 119.08c.152-.017 1.433-.202 1.433-.202v-1.495h-9.096v1.495s1.28.185 1.433.202c.151.017.825.168.825.924v1.899h-7.017v-1.899c0-.756.674-.907.826-.924.152-.017 1.433-.202 1.433-.202v-1.495h-9.097v1.495s1.281.185 1.433.202c.152.017.826.168.826.924v6.112c0 .756-.674.907-.826.924l-1.433.159v1.495h9.097v-1.495l-1.433-.159c-.152-.017-.826-.168-.826-.924v-1.911h7.017v1.911c0 .756-.674.907-.825.924l-1.433.159v1.495h9.096v-1.495l-1.433-.159c-.151-.017-.825-.168-.825-.924v-6.112c0-.756.674-.907.825-.924zM100.734 117.013c-5.866 0-9.288 2.122-9.288 6.055s3.422 6.055 9.288 6.055c5.865 0 9.287-2.122 9.287-6.055s-3.422-6.055-9.287-6.055zm0 10.021c-1.146 0-4.029.033-4.029-3.966s2.883-3.965 4.029-3.965 4.028-.034 4.028 3.965c0 3.999-2.882 3.966-4.028 3.966zM123.311 117.366h7.307v1.512s-1.272.126-1.519.158a.941.941 0 0 0-.79.97v8.702h-5.647c-.269 0-.661-.076-.889-.353-.227-.278-6.181-8.04-6.181-8.04v5.897c0 .442.436.738.758.782a289.6 289.6 0 0 0 1.542.197v1.517h-7.315v-1.513s1.273-.126 1.519-.157a.941.941 0 0 0 .79-.97v-6.194c0-.441-.436-.737-.758-.782-.322-.044-1.542-.176-1.542-.176v-1.55h7.947c.27 0 .662.076.889.353.228.277 6.182 8.04 6.182 8.04v-5.898c0-.441-.436-.737-.759-.781a113.96 113.96 0 0 0-1.534-.177M143.158 117.366h-11.774v1.55s1.22.132 1.543.176c.322.045.758.341.758.782v6.193a.942.942 0 0 1-.79.971c-.246.031-1.519.157-1.519.157v1.513h11.782c3.814 0 7.033-1.765 7.033-5.722 0-3.957-3.628-5.62-7.033-5.62zm-1.146 9.191h-3.911v-7.007h3.928c1.449 0 2.899.488 2.899 3.445s-1.146 3.562-2.916 3.562z"/><path d="M169.268 127.025c-.588-.063-.892-.623-.967-.737-.076-.113-5.373-8.172-5.582-8.475-.208-.302-.625-.428-.84-.428h-8.793v1.537s1.865.183 2.099.208c.234.026.474.454.474.599 0 .145-.082.283-.133.372-.05.088-3.786 6.168-3.982 6.471a1.042 1.042 0 0 1-.765.46c-.24.019-1.485.13-1.485.13v1.546h7.248v-1.496l-1.467-.185c-.328-.058-.421-.428-.421-.52 0-.093.051-.236.143-.378l.548-.883h6.996l.583.883c.093.142.143.285.143.378 0 .092-.092.462-.421.52l-1.671.135v1.546h9.826v-1.496s-.946-.124-1.533-.187zm-12.695-3.761 2.152-3.478 2.303 3.478h-4.455z"/></g></svg>