<svg width="242" height="176" fill="none" xmlns="http://www.w3.org/2000/svg"><g fill="#211E1E"><path d="M94.89 92.294a6.25 6.25 0 0 0 2.725.674c1.124 0 1.718-.465 1.718-1.168 0-.703-.512-1.056-1.814-1.52-1.797-.625-2.971-1.63-2.971-3.186 0-1.841 1.541-3.259 4.085-3.259a6.58 6.58 0 0 1 2.759.543l-.545 1.969a5.133 5.133 0 0 0-2.263-.513c-1.06 0-1.574.48-1.574 1.04 0 .69.61.991 2.007 1.52 1.907.704 2.811 1.698 2.811 3.219 0 1.808-1.397 3.362-4.358 3.362a7.1 7.1 0 0 1-3.067-.674l.488-2.007zm11.045-8.274v10.789h-2.451v-10.79h2.451zm2.601.144a21.685 21.685 0 0 1 3.269-.223c1.607 0 2.723.239 3.5.847a2.741 2.741 0 0 1 .997 2.257 2.865 2.865 0 0 1-1.907 2.659v.046c.754.304 1.171 1.026 1.446 2.017.335 1.217.673 2.627.883 3.042h-2.506c-.177-.32-.433-1.184-.755-2.515-.321-1.33-.754-1.71-1.748-1.727h-.738v4.242h-2.427l-.014-10.645zm2.427 4.643h.962c1.22 0 1.942-.61 1.942-1.553 0-.994-.673-1.488-1.798-1.505a6.1 6.1 0 0 0-1.106.08v2.978zm9.841-4.787v10.789h-2.452v-10.79h2.452zm11.733 5.282c0 3.53-2.149 5.683-5.314 5.683-3.211 0-5.087-2.416-5.087-5.49 0-3.235 2.07-5.652 5.264-5.652 3.323 0 5.137 2.482 5.137 5.459zm-7.817.144c0 2.112.994 3.6 2.631 3.6 1.637 0 2.601-1.566 2.601-3.663 0-1.936-.931-3.6-2.617-3.6s-2.615 1.566-2.615 3.663zm14.583-5.432h2.451v8.74h4.306v2.05h-6.757v-10.79zm10.467 0v10.79h-2.451V84.02l2.451-.006zm2.601.144a19.616 19.616 0 0 1 3.162-.222c1.493 0 2.408.143 3.195.605a2.353 2.353 0 0 1 1.299 2.113c0 .961-.561 1.857-1.781 2.306v.032c1.236.337 2.152 1.265 2.152 2.659a2.88 2.88 0 0 1-1.125 2.29c-.785.624-2.103.974-4.255.974-.885.01-1.77-.044-2.647-.16V84.158zm2.424 4.13h.803c1.283 0 1.972-.529 1.972-1.327 0-.799-.623-1.25-1.732-1.25a6.588 6.588 0 0 0-1.043.066v2.512zm0 4.788c.315.029.632.039.948.03 1.106 0 2.086-.431 2.086-1.553 0-1.122-.98-1.52-2.201-1.52h-.833v3.043zm9.149-1.042-.771 2.77h-2.541l3.306-10.79h3.231l3.355 10.79h-2.647l-.836-2.77h-3.097zm2.745-1.825-.675-2.29c-.194-.638-.384-1.439-.545-2.08h-.033c-.16.641-.321 1.456-.498 2.08l-.64 2.29h2.391zm4.976 4.595V84.02h2.857l2.247 3.954a30.538 30.538 0 0 1 1.765 3.698h.049a39.831 39.831 0 0 1-.209-4.516V84.02h2.249v10.789h-2.56l-2.312-4.163a40.45 40.45 0 0 1-1.88-3.802h-.049c.066 1.426.096 2.947.096 4.706v3.259l-2.253-.005zm17.9-4.563h-3.982v2.561h4.448v2.002h-6.905V84.02h6.679v2.001h-4.222v2.24h3.982v1.98zm2.021 2.048a6.253 6.253 0 0 0 2.724.673c1.125 0 1.718-.464 1.718-1.167 0-.704-.514-1.057-1.814-1.521-1.797-.625-2.971-1.63-2.971-3.186 0-1.84 1.542-3.258 4.085-3.258.949-.02 1.89.165 2.76.543l-.545 1.969a5.138 5.138 0 0 0-2.264-.514c-1.059 0-1.574.481-1.574 1.04 0 .69.61.992 2.007 1.521 1.907.704 2.809 1.698 2.809 3.218 0 1.809-1.395 3.362-4.358 3.362a7.067 7.067 0 0 1-3.067-.673l.49-2.007zm-54.666-4.16h-2.555v2.547h2.555v-2.547zm-32.058-7.235-1.362 1.969h1.961l1.959-1.97h-2.558zm80.77 0-1.607 1.969h1.703l.817-.991h.032l.801.99h1.719l-1.634-1.968h-1.831zM53.137 105.365a.887.887 0 0 0-.273-.383c-.201-.163-.403-.155-.528 0s-.1.288.038.543c.174.288.22.543.046.75a.568.568 0 0 1-.631.131.58.58 0 0 1-.186-.131.884.884 0 0 1-.272-.348l.182-.114a.84.84 0 0 0 .227.307.318.318 0 0 0 .471 0c.117-.141.081-.272-.06-.543-.174-.307-.204-.544-.022-.758a.6.6 0 0 1 .444-.194.612.612 0 0 1 .444.194c.135.109.24.251.302.413l-.182.133zM49.365 102.636c.504-.443 1.04-.372 1.362 0a.9.9 0 0 1 .198.688.907.907 0 0 1-.364.618.954.954 0 0 1-.681.29.942.942 0 0 1-.681-.29.897.897 0 0 1 .166-1.306zm1.022 1.11c.31-.271.444-.687.185-.986-.259-.298-.692-.225-1.024.066-.292.255-.463.67-.186.988.278.318.69.215 1.025-.068zM48.346 99.458c.14.102.257.233.343.383a.913.913 0 0 1-.34 1.336.966.966 0 0 1-.78.145.962.962 0 0 1-.629-.481 1.13 1.13 0 0 1-.168-.438l.206-.054c.02.134.068.262.14.377a.715.715 0 0 0 .49.367.725.725 0 0 0 .599-.138.712.712 0 0 0 .391-.767.712.712 0 0 0-.119-.282 1.041 1.041 0 0 0-.272-.306l.139-.142zM45.762 98.445l1.79-.78.1.232-1.79.78-.1-.232zM45.75 95.243l.21.728.676-.195-.234-.815.201-.06.305 1.051-1.874.544-.294-1 .204-.06.224.769.59-.168-.209-.728.202-.066zM44.332 93.454a3.644 3.644 0 0 1-.101-.527c-.06-.28-.006-.574.15-.815a.888.888 0 0 1 .662-.353 1.027 1.027 0 0 1 .787.19c.227.213.363.505.378.815.02.151.03.304.03.456l-1.906.234zm1.686-.448A1.525 1.525 0 0 0 46 92.75a.748.748 0 0 0-.918-.728.7.7 0 0 0-.666.561.694.694 0 0 0 .01.31 1.6 1.6 0 0 0 .06.291l1.53-.18zM45.434 89.627l.602.234v.258l-1.906-.76v-.302l1.983-.562v.272l-.624.176-.054.684zm-.163-.649-.572.163c-.128.036-.245.06-.36.082.115.032.232.07.35.114l.544.217.038-.576zM44.465 86.415c.011-.183.037-.365.079-.543.042-.281.189-.537.411-.715a.903.903 0 0 1 .746-.11 1.032 1.032 0 0 1 .676.44 1.2 1.2 0 0 1 .084.9 4.146 4.146 0 0 1-.125.44l-1.871-.412zm1.737.136c.031-.08.055-.161.071-.245a.744.744 0 0 0-.308-.881.75.75 0 0 0-.315-.11c-.447-.106-.793.084-.91.603a1.728 1.728 0 0 0-.04.29l1.502.343zM46.783 82.38l-.286.697.648.272.322-.78.193.08-.414 1.012-1.806-.736.398-.972.196.079-.302.738.572.234.272-.698.207.073zM47.968 78.268a2.44 2.44 0 0 1 .242-.389.792.792 0 0 1 .439-.339.406.406 0 0 1 .373.076.472.472 0 0 1 .144.522.5.5 0 0 1 .632-.025.52.52 0 0 1 .212.367.98.98 0 0 1-.272.646 3.065 3.065 0 0 1-.253.296l-1.517-1.154zm.787.271.139-.182a.376.376 0 0 0 0-.543c-.145-.125-.36-.051-.512.15a1 1 0 0 0-.12.19l.493.385zm.746.563c.05-.05.095-.104.136-.16.158-.207.23-.457 0-.628-.228-.171-.435-.043-.602.174l-.128.168.594.445zM51.486 75.81l-.545.527.493.502.605-.586.147.152-.773.763-1.362-1.399.757-.73.144.15-.574.559.43.44.545-.527.133.15zM53.508 75.305l-1.114-1.597.223-.157 1.09.453c.22.089.433.192.64.31-.17-.201-.311-.391-.483-.638l-.468-.668.196-.136 1.114 1.597-.207.144-1.09-.46c-.23-.092-.453-.2-.67-.323.153.193.292.38.477.647l.477.681-.185.147zM56.816 72.31l-.683.328.302.63.765-.364.09.193-.975.47-.841-1.754.948-.454.092.19-.744.345.273.543.684-.325.09.198zM58.325 70.618l1.005-.304.063.2-.766.234.191.62.708-.215.057.198-.705.215.273.841-.243.077-.583-1.866zM61.531 69.844l.324 1.92-.25.04-.322-1.917.248-.043zM65.031 71.449a1.21 1.21 0 0 1-.512.111.918.918 0 0 1-.932-.576.91.91 0 0 1-.062-.382.967.967 0 0 1 .592-.976.976.976 0 0 1 .397-.076c.158-.01.317.016.465.074l-.054.206a.919.919 0 0 0-.398-.068.725.725 0 0 0-.735.815.705.705 0 0 0 .47.722.713.713 0 0 0 .303.038 1.04 1.04 0 0 0 .409-.092l.057.204zM67.856 70.833l-.75-.096-.089.699.839.105-.027.21-1.09-.136.243-1.934 1.046.133-.028.21-.79-.101-.076.608.752.095-.03.207zM69.515 72.09l.544-1.866.273.079.318 1.121c.069.232.12.468.156.706.051-.255.114-.486.198-.776l.232-.782.229.067-.545 1.866-.245-.07-.313-1.125a6.384 6.384 0 0 1-.164-.725c-.054.24-.114.465-.207.777l-.237.796-.24-.068zM73.712 71.788l-.545-.271.095-.19 1.302.64-.095.19-.545-.27-.76 1.558-.228-.111.776-1.546zM76.446 74.355l-.624-.427-.398.579.695.475-.12.174-.89-.62 1.105-1.602.869.595-.12.171-.662-.45-.362.52.624.43-.117.154zM80.237 76.391c.135.118.26.246.376.383.202.202.318.473.324.758a.897.897 0 0 1-.357.663 1.037 1.037 0 0 1-.762.271 1.215 1.215 0 0 1-.771-.475 4.103 4.103 0 0 1-.273-.364l1.463-1.236zm-1.155 1.304c.047.071.098.139.153.204a.749.749 0 0 0 1.168.1.696.696 0 0 0 .066-1.086 1.304 1.304 0 0 0-.213-.207l-1.174.989zM82.08 80.663l-.39-.646-.589.356.433.725-.182.108-.564-.94 1.678-.999.545.904-.183.11-.408-.688-.532.312.39.652-.199.106zM83.089 84.492a.885.885 0 0 0 0 .47c.07.244.245.353.433.299.188-.055.248-.18.272-.462.02-.334.123-.57.387-.644a.566.566 0 0 1 .686.46.901.901 0 0 1 .025.44h-.215a.764.764 0 0 0-.014-.38c-.074-.256-.256-.31-.381-.272-.177.054-.232.19-.256.477-.033.35-.137.544-.414.636-.278.092-.605-.06-.73-.5a1.04 1.04 0 0 1-.017-.513l.224-.01zM84.489 88.22l-.098-.749-.697.09.106.836-.207.027-.142-1.086 1.934-.252.136 1.04-.21.027-.106-.793-.607.081.098.75-.207.03zM83.688 90.133l1.95.06v.27l-1.005.596a5.616 5.616 0 0 1-.645.328c.266-.013.534-.013.8 0l.818.025v.236l-1.948-.06v-.255l1.005-.587a6.44 6.44 0 0 1 .662-.342h-.817l-.834-.027.014-.244zM85.29 94.046l-.798-.163-.194.92.8.166-.05.247-1.907-.393.051-.247.897.184.19-.923-.896-.185.052-.247 1.906.397-.051.244zM82.912 98.483c-.62-.25-.8-.757-.613-1.219a.899.899 0 0 1 .89-.542.904.904 0 0 1 .355.1c.547.22.817.738.613 1.219-.204.48-.706.657-1.245.442zm.545-1.41c-.387-.154-.817-.083-.964.273-.147.355.106.714.517.88.36.146.817.11.967-.272.15-.383-.13-.725-.528-.883l.008.003zM82.83 100.637c-.06.15-.134.294-.22.432a.788.788 0 0 1-.42.402.493.493 0 0 1-.398-.063.51.51 0 0 1-.231-.573.483.483 0 0 1-.485.041 3.114 3.114 0 0 0-.545-.152l.136-.223c.159.032.315.077.466.133.273.092.4.057.529-.133l.125-.201-.73-.459.13-.212 1.643 1.008zm-.888-.253-.136.22a.389.389 0 0 0-.086.303.382.382 0 0 0 .17.265c.213.13.403.032.545-.19a1.25 1.25 0 0 0 .112-.223l-.605-.375zM79.777 102.706l-.33-.543.17-.193 1.04 1.771-.199.231-1.906-.774.174-.204.602.244.45-.532zm-.272.611.545.223c.125.051.231.106.335.157a3.783 3.783 0 0 1-.205-.304l-.302-.513-.373.437zM77.56 104.553a.92.92 0 0 0-.427.193c-.196.165-.226.366-.098.516.128.149.272.154.544.062.314-.119.572-.119.752.092a.56.56 0 0 1-.144.815.863.863 0 0 1-.392.204l-.08-.201a.753.753 0 0 0 .344-.166c.204-.171.18-.358.095-.459-.084-.1-.272-.133-.545-.038-.332.114-.563.101-.749-.119-.185-.22-.193-.573.161-.869a.982.982 0 0 1 .463-.223l.076.193zM73.415 84.196l-5.287-5.2-2.013 2.83 7.3 2.37zM64.767 76.285l-1.411-1.116-7.872 3.194 6.276 2.045 3.007-4.123z"/><path d="m73.414 77.61-7.768-2.528-.88 1.203 3.362 2.71 5.286-1.384zM61.76 80.408l3.211 9.89 1.141-8.473-4.352-1.417zM64.66 73.056l-1.217 1.128 1.132 1.213 1.216-1.128-1.132-1.213zM61.758 80.408l-6.597 3.405 2.078 2.781 4.519-6.186zM51.54 86.162l-1.5.991.616 8.454 3.883-5.322-2.998-4.123zM55.477 78.368l-4.813 6.589.877 1.205 3.62-2.349.316-5.445z"/><path d="m57.24 86.594-2.7 3.69 10.429.014-7.73-3.704zM49.935 84.565l-1.506.7.7 1.501 1.507-.699-.701-1.502zM54.54 90.29l1.21 7.308 3.298-1.116-4.508-6.192zM56.871 101.756l.482 1.73 8.253 2.028-3.873-5.331-4.862 1.573zM50.655 95.615l4.794 6.6 1.422-.459-1.123-4.158-5.093-1.983z"/><path d="m59.047 96.482 2.685 3.701 3.236-9.882-5.921 6.18zM54.855 102.785l.202 1.648 1.648-.203-.202-1.643-1.648.198zM61.738 100.186l7.343 1.111-.043-3.47-7.3 2.359zM73.395 101.522l1.798.073 4.486-7.199-6.278 2.026-.005 5.1z"/><path d="m65.617 105.517 7.776-2.509.003-1.486-4.314-.225-3.465 4.22zM69.038 97.826l4.363-1.404-8.43-6.118 4.067 7.522zM74.075 102.123l-.321 1.625 1.627.32.32-1.625-1.626-.32zM73.401 96.42 76.73 89.8l-3.323-1.034-.006 7.652zM78.274 85.78l.632-1.684-5.483-6.477-.008 6.58 4.859 1.58z"/><path d="m79.685 94.388.01-8.147-1.421-.462-1.544 4.022 2.955 4.587zM73.415 84.199 64.972 90.3l8.435-1.534.008-4.568zM79.869 83.871l-.808 1.448 1.453.805.807-1.448-1.452-.805z"/></g></svg>