<svg width="242" height="176" fill="none" xmlns="http://www.w3.org/2000/svg"><g fill="#211E1E"><path d="M100.387 68.35c-7.856 3.416-20.826 7.8-17.346 13.918 4.27 7.392 28.998 4.13 20.668 13.916-5.589 6.577-8.172 9.789-9.385 12.032 10.545-3.008 17.504-13.407 15.817-24.572-.949-6.474-4.64-11.928-9.754-15.294zm-30.579 6.017c-3.058 4.434-4.481 9.991-3.638 15.752 1.793 12.132 13.076 20.543 25.202 18.759.158-.05.316-.102.474-.102 5.22-10.603-6.01-10.704-2.53-16.363 3.268-5.25-20.035-5.25-19.508-18.046zm47.174.177v27.273h6.644v-23.96a3.307 3.307 0 0 0-3.322-3.313h-3.322zm36.348.048v27.222h13.022c6.538 0 10.334-2.803 10.334-7.646v-.053c-.053-3.109-1.423-5.147-4.535-6.575 2.004-1.376 3.006-3.211 3.006-5.607v-.103c0-1.937-.633-3.466-1.951-4.79-1.634-1.632-4.111-2.448-7.222-2.448H153.33zm-27.118.019v27.222h10.702c4.06 0 7.804-1.377 10.44-3.926 2.584-2.497 4.059-5.913 4.059-9.685v-.102c.054-7.85-6.063-13.509-14.445-13.509h-10.756zm-37.611 5.21c3.05-.08 6.071 2.992 2.823 2.906-3.795-.153-5.324-2.04-4.481-2.498a3.82 3.82 0 0 1 1.658-.408zm71.214.735h5.325c1.53 0 3.427.408 3.427 2.294v.051c0 1.58-1.265 2.396-3.796 2.396h-4.956v-4.74zm-26.907.121h4.06c4.534 0 7.539 3.008 7.539 7.545v.05c0 4.486-3.057 7.495-7.539 7.495h-4.06v-15.09zm-38.54 1.427c.235.007.565.071 1.01.215 2.057.662 1.74 1.631.37 1.529-1.157-.129-2.651-1.782-1.38-1.744zm3.848 2.456c.052-.002.108 0 .168.002.949 0 2.32 1.223.316.816-1.334-.287-1.279-.798-.484-.818zm61.599 6.396h6.327c2.583 0 3.901.815 3.901 2.447v.05c-.053 1.682-1.265 2.499-3.743 2.499h-6.485v-4.996z"/><path d="M89.369 92.361c-3.533 5.66 7.75 5.761 2.53 16.365-.158.051-.316.051-.474.102-12.18 1.783-23.462-6.628-25.254-18.76-.844-5.76.632-11.317 3.637-15.752-.527 12.795 22.83 12.795 19.56 18.045zm4.955 15.855c1.213-2.243 3.796-5.506 9.385-12.031 8.383-9.788-16.397-6.525-20.667-13.917-3.48-6.117 9.542-10.502 17.398-13.917a22.119 22.119 0 0 1 9.754 15.344c1.688 11.062-5.325 21.513-15.87 24.521zm-7.328-28.038c-.844.459.633 2.396 4.482 2.498 3.796.102-1.108-4.282-4.482-2.498zm8.436 2.09c-2.848-.918-1.002 1.376.369 1.53 1.37.101 1.634-.867-.37-1.53zm2.952 2.243c-.949-.051-1.107.51.317.816 2.003.408.632-.816-.317-.816z"/></g></svg>