<svg width="242" height="176" fill="none" xmlns="http://www.w3.org/2000/svg"><path d="m150.008 90.89 5.322 8.36a.339.339 0 0 1-.282.526h-6.179a.325.325 0 0 1-.287-.165l-7.246-11.513a.35.35 0 0 1-.004-.357.339.339 0 0 1 .305-.178h2.201c.763 0 1.48-.306 2.027-.86a3.02 3.02 0 0 0 .87-2.17c-.014-1.554-.987-2.679-2.318-2.679h-5.125v17.584a.343.343 0 0 1-.341.343h-5.703a.34.34 0 0 1-.341-.343V77.699c0-1.065.82-1.933 1.825-1.933h9.851c2.345 0 4.362.841 6.008 2.5 1.672 1.687 2.484 3.675 2.484 6.084 0 2.573-1.072 4.959-2.87 6.38l-.197.16zm15.348-2.939-5.883-11.984a.336.336 0 0 0-.309-.201h-6.318a.342.342 0 0 0-.305.494l11.124 22.506c.319.617.973 1.01 1.695 1.014a1.88 1.88 0 0 0 1.704-1.014l11.183-22.502a.342.342 0 0 0-.305-.493h-6.39a.336.336 0 0 0-.309.2l-5.887 11.98zm-37.48-12.03c-.74-.306-1.453-.164-2.121.435l-10.129 10.727-10.07-10.668c-.686-.599-1.413-.795-2.152-.498a1.956 1.956 0 0 0-1.247 1.851v21.674a.34.34 0 0 0 .341.339h5.672a.34.34 0 0 0 .341-.339v-10.6l5.833 6.062c.691.708 1.883.704 2.565.004l5.838-6.065v10.6c0 .187.152.338.34.338h5.672c.189 0 .341-.151.341-.339V77.763c-.004-.827-.471-1.53-1.224-1.842zm-36.318-2.235c0-.489-.27-.891-.722-1.078a1.128 1.128 0 0 0-1.27.256L74.619 87.919l5.42 5.458c.274.274.422.64.422 1.028v4.242c0 .96-.775 1.741-1.73 1.741h-10.6v1.92c0 .645.52 1.17 1.161 1.17h21.11c.64 0 1.161-.525 1.161-1.17V73.686h-.004zm-23.424 20.76-.004 4.393h10.595a.193.193 0 0 0 .193-.197v-4.2l-5.39-5.425-5.394 5.43zm-1.542 4.398.005-4.434c0-.389.147-.75.42-1.024l5.426-5.462-10.294-10.37a1.268 1.268 0 0 0-.915-.394c-.17 0-.345.037-.52.105-.511.21-.812.672-.812 1.225v19.028c0 .731.592 1.326 1.314 1.326h5.376zm24.835-27.662a2.674 2.674 0 0 1 1.668 2.509v28.622c0 1.499-1.21 2.719-2.699 2.719h-21.11c-1.488 0-2.698-1.22-2.698-2.719v-1.92h-5.372a2.874 2.874 0 0 1-2.852-2.875V78.49c0-1.184.677-2.203 1.762-2.655a2.793 2.793 0 0 1 3.108.621l10.294 10.371 14.958-15.056a2.644 2.644 0 0 1 2.941-.59z" fill="#211E1E"/></svg>