<svg width="243" height="176" fill="none" xmlns="http://www.w3.org/2000/svg"><g fill="#211E1E"><path d="M95.47 90.117v2.211c-.547-.753-.985-1.35-1.313-1.792L85.83 79.412h-2.321V96.6h2.56V83.685c.547.753.984 1.35 1.311 1.792L95.708 96.6h2.312V79.412h-2.55v10.705zM108.664 84.68a5.68 5.68 0 0 0-3.007-.798 6.401 6.401 0 0 0-2.449.453 5.542 5.542 0 0 0-1.926 1.318 5.808 5.808 0 0 0-1.256 2.05 7.728 7.728 0 0 0-.435 2.664c0 1.296.265 2.43.796 3.4a5.825 5.825 0 0 0 2.187 2.284c.972.56 2.082.845 3.208.823a7.407 7.407 0 0 0 2.124-.307 5.37 5.37 0 0 0 1.889-1.007 6.227 6.227 0 0 0 1.48-1.804l-1.889-1.155a4.231 4.231 0 0 1-.945 1.24 3.356 3.356 0 0 1-1.219.689 4.83 4.83 0 0 1-1.443.208 3.732 3.732 0 0 1-1.913-.495 3.387 3.387 0 0 1-1.329-1.463 4.935 4.935 0 0 1-.463-1.854h9.402c.016-.114.023-.23.023-.345v-.319c0-1.276-.252-2.393-.758-3.35a5.595 5.595 0 0 0-2.077-2.232zm-5.654 2.382a2.812 2.812 0 0 1 1.131-.86 3.81 3.81 0 0 1 1.49-.283c.464-.012.925.079 1.349.266.424.187.8.465 1.1.814.456.519.749 1.231.879 2.137h-6.813a5.38 5.38 0 0 1 .155-.675c.144-.507.384-.982.709-1.4zM122.248 84.692a6.623 6.623 0 0 0-3.304-.81 6.783 6.783 0 0 0-2.537.466 5.958 5.958 0 0 0-2.037 1.339 6.02 6.02 0 0 0-1.344 2.062 7.045 7.045 0 0 0-.472 2.615c0 1.276.278 2.406.833 3.388a5.945 5.945 0 0 0 2.287 2.295 6.974 6.974 0 0 0 5.829.345 6.258 6.258 0 0 0 2.043-1.339 5.9 5.9 0 0 0 1.342-2.05 7.092 7.092 0 0 0 .472-2.64c0-1.295-.277-2.429-.833-3.4a5.905 5.905 0 0 0-2.279-2.271zm.325 7.488a3.931 3.931 0 0 1-.822 1.364 3.511 3.511 0 0 1-1.242.846c-.497.2-1.029.3-1.565.295a3.851 3.851 0 0 1-1.978-.518 3.637 3.637 0 0 1-1.392-1.486c-.339-.647-.509-1.42-.509-2.32a5.305 5.305 0 0 1 .286-1.814c.176-.499.45-.958.809-1.35a3.293 3.293 0 0 1 1.242-.848 4.193 4.193 0 0 1 1.542-.282c.71-.013 1.41.167 2.025.518.597.35 1.081.86 1.396 1.47.34.638.511 1.41.511 2.309a5.232 5.232 0 0 1-.303 1.816zM135.484 84.68a5.68 5.68 0 0 0-3.007-.798 6.405 6.405 0 0 0-2.449.453c-.729.3-1.386.749-1.925 1.318a5.803 5.803 0 0 0-1.256 2.05 7.723 7.723 0 0 0-.435 2.664c0 1.296.265 2.43.796 3.4a5.825 5.825 0 0 0 2.187 2.284 6.172 6.172 0 0 0 3.203.819 7.427 7.427 0 0 0 2.127-.307 5.415 5.415 0 0 0 1.889-1.007 6.264 6.264 0 0 0 1.478-1.804l-1.889-1.154a4.252 4.252 0 0 1-.944 1.24 3.376 3.376 0 0 1-1.219.688 4.848 4.848 0 0 1-1.443.208 3.741 3.741 0 0 1-1.915-.49 3.382 3.382 0 0 1-1.323-1.464 4.897 4.897 0 0 1-.464-1.854h9.4c.016-.114.025-.23.024-.345v-.319c0-1.276-.252-2.393-.758-3.35a5.595 5.595 0 0 0-2.077-2.232zm-5.654 2.382a2.825 2.825 0 0 1 1.129-.86c.473-.193.981-.29 1.493-.283.464-.012.925.08 1.348.266.424.187.8.465 1.1.814.457.519.75 1.231.878 2.137h-6.81c.036-.228.088-.453.154-.675.144-.507.384-.982.709-1.4h-.001zM148.463 84.471a4.814 4.814 0 0 0-2.411-.59 4.646 4.646 0 0 0-2.425.676 3.555 3.555 0 0 0-1.304 1.415v-1.845h-2.436V96.6h2.436v-7.386c0-.998.294-1.779.883-2.344s1.347-.848 2.274-.848c.829 0 1.5.279 2.014.835.513.556.77 1.31.77 2.26v7.489h2.461v-7.888a5.194 5.194 0 0 0-.609-2.566 4.276 4.276 0 0 0-1.653-1.68zM161.365 84.68a5.697 5.697 0 0 0-3.009-.798 6.414 6.414 0 0 0-2.449.453 5.55 5.55 0 0 0-1.923 1.318 5.807 5.807 0 0 0-1.255 2.05 7.7 7.7 0 0 0-.435 2.665c0 1.295.265 2.429.795 3.4a5.83 5.83 0 0 0 2.187 2.283c.972.56 2.082.845 3.208.823a7.416 7.416 0 0 0 2.125-.307 5.38 5.38 0 0 0 1.889-1.007 6.25 6.25 0 0 0 1.479-1.804l-1.889-1.154a4.205 4.205 0 0 1-.945 1.24 3.357 3.357 0 0 1-1.217.688 4.858 4.858 0 0 1-1.444.208 3.731 3.731 0 0 1-1.914-.49 3.382 3.382 0 0 1-1.331-1.468 4.906 4.906 0 0 1-.466-1.851h9.4c.016-.115.025-.23.025-.345v-.319c0-1.277-.253-2.394-.758-3.35a5.62 5.62 0 0 0-2.073-2.235zm-5.656 2.382a2.818 2.818 0 0 1 1.131-.86c.472-.193.98-.29 1.492-.283a3.116 3.116 0 0 1 2.448 1.08c.456.519.749 1.231.879 2.137h-6.813c.036-.228.088-.453.154-.675.144-.507.384-.982.709-1.4zM169.63 84.447c-.588.376-1.064.948-1.429 1.718v-2.038h-2.436V96.6h2.436v-6.654c0-1.063.274-1.915.821-2.554.252-.306.57-.55.932-.717a2.652 2.652 0 0 1 1.156-.24h1.242v-2.553h-.721a3.631 3.631 0 0 0-2.001.565zM182.046 86.222a6.997 6.997 0 0 0-.274-.438 4.414 4.414 0 0 0-1.529-1.386c-.622-.346-1.38-.519-2.275-.519a5.602 5.602 0 0 0-2.23.442 5.325 5.325 0 0 0-1.79 1.24 5.733 5.733 0 0 0-1.181 1.878 6.414 6.414 0 0 0-.416 2.36 6.133 6.133 0 0 0 .747 3.033 5.64 5.64 0 0 0 2.013 2.112c.859.522 1.85.791 2.858.778.895 0 1.654-.176 2.275-.529a4.575 4.575 0 0 0 1.529-1.386 6.11 6.11 0 0 0 .274-.432v1.757c0 .82-.174 1.5-.525 2.05a3.333 3.333 0 0 1-1.392 1.24 4.363 4.363 0 0 1-1.914.418 4.208 4.208 0 0 1-2.188-.577 4.787 4.787 0 0 1-1.615-1.608l-1.716 1.35c.37.655.869 1.23 1.466 1.694a5.93 5.93 0 0 0 1.903.97 7.84 7.84 0 0 0 5.379-.381 5.267 5.267 0 0 0 2.237-2.025c.546-.892.82-1.977.82-3.254V84.127h-2.46l.004 2.095zm-.423 5.505a3.49 3.49 0 0 1-1.28 1.325 3.899 3.899 0 0 1-3.742 0 3.445 3.445 0 0 1-1.292-1.325 3.89 3.89 0 0 1-.473-1.928 3.946 3.946 0 0 1 .473-1.952c.3-.55.747-1.008 1.292-1.325a3.884 3.884 0 0 1 3.742 0c.54.32.982.778 1.28 1.325.323.6.486 1.272.473 1.952a3.913 3.913 0 0 1-.473 1.928zM189.204 79.278a1.764 1.764 0 0 0-1.192-.43 1.718 1.718 0 0 0-1.181.43 1.477 1.477 0 0 0-.486 1.166 1.454 1.454 0 0 0 .486 1.141c.324.287.746.441 1.181.43.438.01.863-.144 1.192-.43a1.42 1.42 0 0 0 .497-1.142 1.444 1.444 0 0 0-.497-1.165zM189.229 84.127h-2.436v12.472h2.436V84.127zM201.718 86.582a4.41 4.41 0 0 0-1.254-1.534 5.209 5.209 0 0 0-1.79-.884 7.85 7.85 0 0 0-2.125-.282 6.297 6.297 0 0 0-3.083.749 4.623 4.623 0 0 0-2.039 2.271l1.917 1.084a2.998 2.998 0 0 1 1.181-1.426c.538-.345 1.197-.518 1.976-.518a4.32 4.32 0 0 1 1.629.295c.484.192.896.526 1.181.957.297.443.446 1.024.447 1.744v1.392a3.392 3.392 0 0 0-.274-.26c-.779-.67-1.906-1.006-3.38-1.006a7.233 7.233 0 0 0-2.586.442 4.068 4.068 0 0 0-1.836 1.312 3.63 3.63 0 0 0-.014 4.187 4.148 4.148 0 0 0 1.791 1.314 6.73 6.73 0 0 0 2.523.454c1.492 0 2.644-.348 3.455-1.044.165-.14.315-.297.448-.467v1.241h2.312v-7.787a4.893 4.893 0 0 0-.479-2.234zm-2.784 7.905c-.595.346-1.339.518-2.23.518-.912 0-1.671-.172-2.275-.518-.604-.346-.907-.845-.907-1.498a1.638 1.638 0 0 1 .907-1.534c.604-.336 1.363-.504 2.275-.503.895 0 1.638.173 2.23.518.279.146.511.365.669.635.159.269.237.577.227.888 0 .654-.298 1.152-.896 1.495v-.001zM60.585 90.492a7.444 7.444 0 0 0 2.195 5.282c2.718 2.685 6.409 2.68 8.761 1.417 2.88-1.543 9.359-6.172 2.632-25.372 0 9.063-13.588 9.984-13.588 18.673z"/><path d="M66.772 79.753c-.446-2.375-1.161-4.807-2.23-7.934 0 9.063-13.59 9.984-13.59 18.673a7.45 7.45 0 0 0 2.193 5.282c2.718 2.685 6.437 2.677 8.76 1.417-5.402-5.69-3.5-12.276 4.867-17.438z"/><path d="M57.14 79.753c-.447-2.375-1.163-4.807-2.231-7.934 0 9.063-13.59 9.984-13.59 18.673 0 4.456 3.655 6.418 3.655 6.418a19.696 19.696 0 0 0-.35 7.274l1.744-.287c-.853-2.928-.33-6.117-.276-6.43 2.23.883 4.53.621 6.181-.273-5.41-5.693-3.5-12.278 4.866-17.44z"/></g></svg>