<svg width="73" height="30" fill="none" xmlns="http://www.w3.org/2000/svg"><path d="m21.035 5.913-.092 2.575c-1.21-1.804-3.12-2.89-5.764-2.89-4.647 0-8.205 3.487-8.205 8.79 0 5.362 3.558 8.95 8.205 8.95 2.613 0 4.484-1.053 5.693-2.797v5.931H7.888V30h12.983l4.332-3.528V5.913h-4.168zM15.386 19.62c-2.826 0-4.708-2.058-4.708-5.2 0-3.073 1.88-5.14 4.708-5.14 2.806 0 4.708 2.067 4.708 5.17 0 3.111-1.901 5.17-4.708 5.17zM49.31 5.572c-2.835 0-4.83 1.22-5.626 2.935-1.132-1.81-2.965-2.935-5.618-2.935-2.436 0-4.749 1.152-5.528 2.935V5.979h-4.597v17.006h4.597V10.009h6.55v12.976h4.596V10.009h6.55v12.976h4.602V10.828c0-2.872-2.294-5.256-5.527-5.256zM0 5.912v17.101h4.331V5.912H0z" fill="#211E1E"/><path d="M7.764 0H3.437v5.912h4.327V0z" fill="#211E1E"/><path fill-rule="evenodd" clip-rule="evenodd" d="M59.125 5.917v4.092h9.544v1.588l-4.998.833c-1.364.222-2.497.6-3.4 1.133-.901.534-1.572 1.19-2.012 1.968-.418.778-.627 1.656-.627 2.634 0 1.045.253 1.956.759 2.734.506.756 1.21 1.356 2.112 1.8.924.423 1.99.634 3.2.634 1.013 0 1.925-.144 2.74-.433a6.95 6.95 0 0 0 2.21-1.234l.016-.013v1.366H73V5.917H59.125zm4.715 9.482 4.556-.988v1.087c0 .91-.192 1.743-.577 2.497a4.542 4.542 0 0 1-1.64 1.764c-.689.444-1.499.666-2.43.666-.75 0-1.367-.21-1.853-.632-.466-.444-.699-1.01-.699-1.698 0-.71.213-1.287.638-1.731.425-.466 1.094-.788 2.005-.966z" fill="#211E1E"/></svg>